<?xml version="1.0" encoding="UTF-8" standalone="no"?>
<!DOCTYPE svg PUBLIC "-//W3C//DTD SVG 1.1//EN"
 "http://www.w3.org/Graphics/SVG/1.1/DTD/svg11.dtd">
<!-- Generated by graphviz version 2.36.0 (20140111.2315)
 -->
<!-- Title: controllers_diagram Pages: 1 -->
<svg width="830pt" height="792pt"
 viewBox="0.00 0.00 830.00 792.00" xmlns="http://www.w3.org/2000/svg" xmlns:xlink="http://www.w3.org/1999/xlink">
<g id="graph0" class="graph" transform="scale(1 1) rotate(0) translate(4 788)">
<title>controllers_diagram</title>
<polygon fill="none" stroke="none" points="-4,4 -4,-788 826,-788 826,4 -4,4"/>
<!-- _diagram_info -->
<g id="node1" class="node"><title>_diagram_info</title>
<text text-anchor="start" x="616" y="-614.6" font-family="Times,serif" font-size="13.00">Controllers diagram</text>
<text text-anchor="start" x="616" y="-600.6" font-family="Times,serif" font-size="13.00">Date: May 18 2017 &#45; 19:23</text>
<text text-anchor="start" x="616" y="-586.6" font-family="Times,serif" font-size="13.00">Migration version: 20170518131255</text>
<text text-anchor="start" x="616" y="-572.6" font-family="Times,serif" font-size="13.00">Generated by RailRoady 1.5.2</text>
<text text-anchor="start" x="616" y="-558.6" font-family="Times,serif" font-size="13.00">http://railroady.prestonlee.com</text>
</g>
<!-- ProductsController -->
<g id="node2" class="node"><title>ProductsController</title>
<path fill="none" stroke="black" d="M50,-570.5C50,-570.5 145,-570.5 145,-570.5 151,-570.5 157,-576.5 157,-582.5 157,-582.5 157,-771.5 157,-771.5 157,-777.5 151,-783.5 145,-783.5 145,-783.5 50,-783.5 50,-783.5 44,-783.5 38,-777.5 38,-771.5 38,-771.5 38,-582.5 38,-582.5 38,-576.5 44,-570.5 50,-570.5"/>
<text text-anchor="middle" x="97.5" y="-768.3" font-family="Times,serif" font-size="14.00">ProductsController</text>
<polyline fill="none" stroke="black" points="38,-760.5 157,-760.5 "/>
<text text-anchor="start" x="46" y="-745.3" font-family="Times,serif" font-size="14.00">create</text>
<text text-anchor="start" x="46" y="-730.3" font-family="Times,serif" font-size="14.00">destroy</text>
<text text-anchor="start" x="46" y="-715.3" font-family="Times,serif" font-size="14.00">edit</text>
<text text-anchor="start" x="46" y="-700.3" font-family="Times,serif" font-size="14.00">index</text>
<text text-anchor="start" x="46" y="-685.3" font-family="Times,serif" font-size="14.00">new</text>
<text text-anchor="start" x="46" y="-670.3" font-family="Times,serif" font-size="14.00">show</text>
<text text-anchor="start" x="46" y="-655.3" font-family="Times,serif" font-size="14.00">update</text>
<polyline fill="none" stroke="black" points="38,-647.5 157,-647.5 "/>
<polyline fill="none" stroke="black" points="38,-623.5 157,-623.5 "/>
<text text-anchor="start" x="46" y="-608.3" font-family="Times,serif" font-size="14.00">_layout</text>
<text text-anchor="start" x="46" y="-593.3" font-family="Times,serif" font-size="14.00">product_params</text>
<text text-anchor="start" x="46" y="-578.3" font-family="Times,serif" font-size="14.00">set_product</text>
</g>
<!-- CommunitiesController -->
<g id="node3" class="node"><title>CommunitiesController</title>
<path fill="none" stroke="black" d="M373,-247.5C373,-247.5 495,-247.5 495,-247.5 501,-247.5 507,-253.5 507,-259.5 507,-259.5 507,-448.5 507,-448.5 507,-454.5 501,-460.5 495,-460.5 495,-460.5 373,-460.5 373,-460.5 367,-460.5 361,-454.5 361,-448.5 361,-448.5 361,-259.5 361,-259.5 361,-253.5 367,-247.5 373,-247.5"/>
<text text-anchor="middle" x="434" y="-445.3" font-family="Times,serif" font-size="14.00">CommunitiesController</text>
<polyline fill="none" stroke="black" points="361,-437.5 507,-437.5 "/>
<text text-anchor="start" x="369" y="-422.3" font-family="Times,serif" font-size="14.00">create</text>
<text text-anchor="start" x="369" y="-407.3" font-family="Times,serif" font-size="14.00">destroy</text>
<text text-anchor="start" x="369" y="-392.3" font-family="Times,serif" font-size="14.00">edit</text>
<text text-anchor="start" x="369" y="-377.3" font-family="Times,serif" font-size="14.00">index</text>
<text text-anchor="start" x="369" y="-362.3" font-family="Times,serif" font-size="14.00">new</text>
<text text-anchor="start" x="369" y="-347.3" font-family="Times,serif" font-size="14.00">show</text>
<text text-anchor="start" x="369" y="-332.3" font-family="Times,serif" font-size="14.00">update</text>
<polyline fill="none" stroke="black" points="361,-324.5 507,-324.5 "/>
<polyline fill="none" stroke="black" points="361,-300.5 507,-300.5 "/>
<text text-anchor="start" x="369" y="-285.3" font-family="Times,serif" font-size="14.00">_layout</text>
<text text-anchor="start" x="369" y="-270.3" font-family="Times,serif" font-size="14.00">community_params</text>
<text text-anchor="start" x="369" y="-255.3" font-family="Times,serif" font-size="14.00">set_community</text>
</g>
<!-- ApplicationController -->
<g id="node4" class="node"><title>ApplicationController</title>
<path fill="none" stroke="black" d="M164,-95.5C164,-95.5 276,-95.5 276,-95.5 282,-95.5 288,-101.5 288,-107.5 288,-107.5 288,-177.5 288,-177.5 288,-183.5 282,-189.5 276,-189.5 276,-189.5 164,-189.5 164,-189.5 158,-189.5 152,-183.5 152,-177.5 152,-177.5 152,-107.5 152,-107.5 152,-101.5 158,-95.5 164,-95.5"/>
<text text-anchor="middle" x="220" y="-174.3" font-family="Times,serif" font-size="14.00">ApplicationController</text>
<polyline fill="none" stroke="black" points="152,-166.5 288,-166.5 "/>
<polyline fill="none" stroke="black" points="152,-142.5 288,-142.5 "/>
<polyline fill="none" stroke="black" points="152,-118.5 288,-118.5 "/>
<text text-anchor="start" x="160" y="-103.3" font-family="Times,serif" font-size="14.00">_layout</text>
</g>
<!-- ItemFeaturesController -->
<g id="node5" class="node"><title>ItemFeaturesController</title>
<path fill="none" stroke="black" d="M202,-475.5C202,-475.5 321,-475.5 321,-475.5 327,-475.5 333,-481.5 333,-487.5 333,-487.5 333,-676.5 333,-676.5 333,-682.5 327,-688.5 321,-688.5 321,-688.5 202,-688.5 202,-688.5 196,-688.5 190,-682.5 190,-676.5 190,-676.5 190,-487.5 190,-487.5 190,-481.5 196,-475.5 202,-475.5"/>
<text text-anchor="middle" x="261.5" y="-673.3" font-family="Times,serif" font-size="14.00">ItemFeaturesController</text>
<polyline fill="none" stroke="black" points="190,-665.5 333,-665.5 "/>
<text text-anchor="start" x="198" y="-650.3" font-family="Times,serif" font-size="14.00">create</text>
<text text-anchor="start" x="198" y="-635.3" font-family="Times,serif" font-size="14.00">destroy</text>
<text text-anchor="start" x="198" y="-620.3" font-family="Times,serif" font-size="14.00">edit</text>
<text text-anchor="start" x="198" y="-605.3" font-family="Times,serif" font-size="14.00">index</text>
<text text-anchor="start" x="198" y="-590.3" font-family="Times,serif" font-size="14.00">new</text>
<text text-anchor="start" x="198" y="-575.3" font-family="Times,serif" font-size="14.00">show</text>
<text text-anchor="start" x="198" y="-560.3" font-family="Times,serif" font-size="14.00">update</text>
<polyline fill="none" stroke="black" points="190,-552.5 333,-552.5 "/>
<polyline fill="none" stroke="black" points="190,-528.5 333,-528.5 "/>
<text text-anchor="start" x="198" y="-513.3" font-family="Times,serif" font-size="14.00">_layout</text>
<text text-anchor="start" x="198" y="-498.3" font-family="Times,serif" font-size="14.00">item_feature_params</text>
<text text-anchor="start" x="198" y="-483.3" font-family="Times,serif" font-size="14.00">set_item_feature</text>
</g>
<!-- BonusAccountsController -->
<g id="node6" class="node"><title>BonusAccountsController</title>
<path fill="none" stroke="black" d="M183,-228.5C183,-228.5 317,-228.5 317,-228.5 323,-228.5 329,-234.5 329,-240.5 329,-240.5 329,-429.5 329,-429.5 329,-435.5 323,-441.5 317,-441.5 317,-441.5 183,-441.5 183,-441.5 177,-441.5 171,-435.5 171,-429.5 171,-429.5 171,-240.5 171,-240.5 171,-234.5 177,-228.5 183,-228.5"/>
<text text-anchor="middle" x="250" y="-426.3" font-family="Times,serif" font-size="14.00">BonusAccountsController</text>
<polyline fill="none" stroke="black" points="171,-418.5 329,-418.5 "/>
<text text-anchor="start" x="179" y="-403.3" font-family="Times,serif" font-size="14.00">create</text>
<text text-anchor="start" x="179" y="-388.3" font-family="Times,serif" font-size="14.00">destroy</text>
<text text-anchor="start" x="179" y="-373.3" font-family="Times,serif" font-size="14.00">edit</text>
<text text-anchor="start" x="179" y="-358.3" font-family="Times,serif" font-size="14.00">index</text>
<text text-anchor="start" x="179" y="-343.3" font-family="Times,serif" font-size="14.00">new</text>
<text text-anchor="start" x="179" y="-328.3" font-family="Times,serif" font-size="14.00">show</text>
<text text-anchor="start" x="179" y="-313.3" font-family="Times,serif" font-size="14.00">update</text>
<polyline fill="none" stroke="black" points="171,-305.5 329,-305.5 "/>
<polyline fill="none" stroke="black" points="171,-281.5 329,-281.5 "/>
<text text-anchor="start" x="179" y="-266.3" font-family="Times,serif" font-size="14.00">_layout</text>
<text text-anchor="start" x="179" y="-251.3" font-family="Times,serif" font-size="14.00">bonus_account_params</text>
<text text-anchor="start" x="179" y="-236.3" font-family="Times,serif" font-size="14.00">set_bonus_account</text>
</g>
<!-- ShortCodesController -->
<g id="node7" class="node"><title>ShortCodesController</title>
<path fill="none" stroke="black" d="M12,-323.5C12,-323.5 123,-323.5 123,-323.5 129,-323.5 135,-329.5 135,-335.5 135,-335.5 135,-524.5 135,-524.5 135,-530.5 129,-536.5 123,-536.5 123,-536.5 12,-536.5 12,-536.5 6,-536.5 0,-530.5 0,-524.5 0,-524.5 0,-335.5 0,-335.5 0,-329.5 6,-323.5 12,-323.5"/>
<text text-anchor="middle" x="67.5" y="-521.3" font-family="Times,serif" font-size="14.00">ShortCodesController</text>
<polyline fill="none" stroke="black" points="0,-513.5 135,-513.5 "/>
<text text-anchor="start" x="8" y="-498.3" font-family="Times,serif" font-size="14.00">create</text>
<text text-anchor="start" x="8" y="-483.3" font-family="Times,serif" font-size="14.00">destroy</text>
<text text-anchor="start" x="8" y="-468.3" font-family="Times,serif" font-size="14.00">edit</text>
<text text-anchor="start" x="8" y="-453.3" font-family="Times,serif" font-size="14.00">index</text>
<text text-anchor="start" x="8" y="-438.3" font-family="Times,serif" font-size="14.00">new</text>
<text text-anchor="start" x="8" y="-423.3" font-family="Times,serif" font-size="14.00">show</text>
<text text-anchor="start" x="8" y="-408.3" font-family="Times,serif" font-size="14.00">update</text>
<polyline fill="none" stroke="black" points="0,-400.5 135,-400.5 "/>
<polyline fill="none" stroke="black" points="0,-376.5 135,-376.5 "/>
<text text-anchor="start" x="8" y="-361.3" font-family="Times,serif" font-size="14.00">_layout</text>
<text text-anchor="start" x="8" y="-346.3" font-family="Times,serif" font-size="14.00">set_short_code</text>
<text text-anchor="start" x="8" y="-331.3" font-family="Times,serif" font-size="14.00">short_code_params</text>
</g>
<!-- ServicesController -->
<g id="node8" class="node"><title>ServicesController</title>
<path fill="none" stroke="black" d="M12,-76.5C12,-76.5 106,-76.5 106,-76.5 112,-76.5 118,-82.5 118,-88.5 118,-88.5 118,-277.5 118,-277.5 118,-283.5 112,-289.5 106,-289.5 106,-289.5 12,-289.5 12,-289.5 6,-289.5 0,-283.5 0,-277.5 0,-277.5 0,-88.5 0,-88.5 0,-82.5 6,-76.5 12,-76.5"/>
<text text-anchor="middle" x="59" y="-274.3" font-family="Times,serif" font-size="14.00">ServicesController</text>
<polyline fill="none" stroke="black" points="0,-266.5 118,-266.5 "/>
<text text-anchor="start" x="8" y="-251.3" font-family="Times,serif" font-size="14.00">create</text>
<text text-anchor="start" x="8" y="-236.3" font-family="Times,serif" font-size="14.00">destroy</text>
<text text-anchor="start" x="8" y="-221.3" font-family="Times,serif" font-size="14.00">edit</text>
<text text-anchor="start" x="8" y="-206.3" font-family="Times,serif" font-size="14.00">index</text>
<text text-anchor="start" x="8" y="-191.3" font-family="Times,serif" font-size="14.00">new</text>
<text text-anchor="start" x="8" y="-176.3" font-family="Times,serif" font-size="14.00">show</text>
<text text-anchor="start" x="8" y="-161.3" font-family="Times,serif" font-size="14.00">update</text>
<polyline fill="none" stroke="black" points="0,-153.5 118,-153.5 "/>
<polyline fill="none" stroke="black" points="0,-129.5 118,-129.5 "/>
<text text-anchor="start" x="8" y="-114.3" font-family="Times,serif" font-size="14.00">_layout</text>
<text text-anchor="start" x="8" y="-99.3" font-family="Times,serif" font-size="14.00">service_params</text>
<text text-anchor="start" x="8" y="-84.3" font-family="Times,serif" font-size="14.00">set_service</text>
</g>
<!-- FnFsController -->
<g id="node9" class="node"><title>FnFsController</title>
<path fill="none" stroke="black" d="M373,-0.5C373,-0.5 448,-0.5 448,-0.5 454,-0.5 460,-6.5 460,-12.5 460,-12.5 460,-201.5 460,-201.5 460,-207.5 454,-213.5 448,-213.5 448,-213.5 373,-213.5 373,-213.5 367,-213.5 361,-207.5 361,-201.5 361,-201.5 361,-12.5 361,-12.5 361,-6.5 367,-0.5 373,-0.5"/>
<text text-anchor="middle" x="410.5" y="-198.3" font-family="Times,serif" font-size="14.00">FnFsController</text>
<polyline fill="none" stroke="black" points="361,-190.5 460,-190.5 "/>
<text text-anchor="start" x="369" y="-175.3" font-family="Times,serif" font-size="14.00">create</text>
<text text-anchor="start" x="369" y="-160.3" font-family="Times,serif" font-size="14.00">destroy</text>
<text text-anchor="start" x="369" y="-145.3" font-family="Times,serif" font-size="14.00">edit</text>
<text text-anchor="start" x="369" y="-130.3" font-family="Times,serif" font-size="14.00">index</text>
<text text-anchor="start" x="369" y="-115.3" font-family="Times,serif" font-size="14.00">new</text>
<text text-anchor="start" x="369" y="-100.3" font-family="Times,serif" font-size="14.00">show</text>
<text text-anchor="start" x="369" y="-85.3" font-family="Times,serif" font-size="14.00">update</text>
<polyline fill="none" stroke="black" points="361,-77.5 460,-77.5 "/>
<polyline fill="none" stroke="black" points="361,-53.5 460,-53.5 "/>
<text text-anchor="start" x="369" y="-38.3" font-family="Times,serif" font-size="14.00">_layout</text>
<text text-anchor="start" x="369" y="-23.3" font-family="Times,serif" font-size="14.00">fnf_params</text>
<text text-anchor="start" x="369" y="-8.3" font-family="Times,serif" font-size="14.00">set_fnf</text>
</g>
<!-- OffersController -->
<g id="node10" class="node"><title>OffersController</title>
<path fill="none" stroke="black" d="M620,-304.5C620,-304.5 703,-304.5 703,-304.5 709,-304.5 715,-310.5 715,-316.5 715,-316.5 715,-505.5 715,-505.5 715,-511.5 709,-517.5 703,-517.5 703,-517.5 620,-517.5 620,-517.5 614,-517.5 608,-511.5 608,-505.5 608,-505.5 608,-316.5 608,-316.5 608,-310.5 614,-304.5 620,-304.5"/>
<text text-anchor="middle" x="661.5" y="-502.3" font-family="Times,serif" font-size="14.00">OffersController</text>
<polyline fill="none" stroke="black" points="608,-494.5 715,-494.5 "/>
<text text-anchor="start" x="616" y="-479.3" font-family="Times,serif" font-size="14.00">create</text>
<text text-anchor="start" x="616" y="-464.3" font-family="Times,serif" font-size="14.00">destroy</text>
<text text-anchor="start" x="616" y="-449.3" font-family="Times,serif" font-size="14.00">edit</text>
<text text-anchor="start" x="616" y="-434.3" font-family="Times,serif" font-size="14.00">index</text>
<text text-anchor="start" x="616" y="-419.3" font-family="Times,serif" font-size="14.00">new</text>
<text text-anchor="start" x="616" y="-404.3" font-family="Times,serif" font-size="14.00">show</text>
<text text-anchor="start" x="616" y="-389.3" font-family="Times,serif" font-size="14.00">update</text>
<polyline fill="none" stroke="black" points="608,-381.5 715,-381.5 "/>
<polyline fill="none" stroke="black" points="608,-357.5 715,-357.5 "/>
<text text-anchor="start" x="616" y="-342.3" font-family="Times,serif" font-size="14.00">_layout</text>
<text text-anchor="start" x="616" y="-327.3" font-family="Times,serif" font-size="14.00">offer_params</text>
<text text-anchor="start" x="616" y="-312.3" font-family="Times,serif" font-size="14.00">set_offer</text>
</g>
<!-- IsdTariffsController -->
<g id="node11" class="node"><title>IsdTariffsController</title>
<path fill="none" stroke="black" d="M563,-57.5C563,-57.5 664,-57.5 664,-57.5 670,-57.5 676,-63.5 676,-69.5 676,-69.5 676,-258.5 676,-258.5 676,-264.5 670,-270.5 664,-270.5 664,-270.5 563,-270.5 563,-270.5 557,-270.5 551,-264.5 551,-258.5 551,-258.5 551,-69.5 551,-69.5 551,-63.5 557,-57.5 563,-57.5"/>
<text text-anchor="middle" x="613.5" y="-255.3" font-family="Times,serif" font-size="14.00">IsdTariffsController</text>
<polyline fill="none" stroke="black" points="551,-247.5 676,-247.5 "/>
<text text-anchor="start" x="559" y="-232.3" font-family="Times,serif" font-size="14.00">create</text>
<text text-anchor="start" x="559" y="-217.3" font-family="Times,serif" font-size="14.00">destroy</text>
<text text-anchor="start" x="559" y="-202.3" font-family="Times,serif" font-size="14.00">edit</text>
<text text-anchor="start" x="559" y="-187.3" font-family="Times,serif" font-size="14.00">index</text>
<text text-anchor="start" x="559" y="-172.3" font-family="Times,serif" font-size="14.00">new</text>
<text text-anchor="start" x="559" y="-157.3" font-family="Times,serif" font-size="14.00">show</text>
<text text-anchor="start" x="559" y="-142.3" font-family="Times,serif" font-size="14.00">update</text>
<polyline fill="none" stroke="black" points="551,-134.5 676,-134.5 "/>
<polyline fill="none" stroke="black" points="551,-110.5 676,-110.5 "/>
<text text-anchor="start" x="559" y="-95.3" font-family="Times,serif" font-size="14.00">_layout</text>
<text text-anchor="start" x="559" y="-80.3" font-family="Times,serif" font-size="14.00">isd_tariff_params</text>
<text text-anchor="start" x="559" y="-65.3" font-family="Times,serif" font-size="14.00">set_isd_tariff</text>
</g>
<!-- UserAccountsController -->
<g id="node12" class="node"><title>UserAccountsController</title>
<path fill="none" stroke="black" d="M430,-494.5C430,-494.5 555,-494.5 555,-494.5 561,-494.5 567,-500.5 567,-506.5 567,-506.5 567,-695.5 567,-695.5 567,-701.5 561,-707.5 555,-707.5 555,-707.5 430,-707.5 430,-707.5 424,-707.5 418,-701.5 418,-695.5 418,-695.5 418,-506.5 418,-506.5 418,-500.5 424,-494.5 430,-494.5"/>
<text text-anchor="middle" x="492.5" y="-692.3" font-family="Times,serif" font-size="14.00">UserAccountsController</text>
<polyline fill="none" stroke="black" points="418,-684.5 567,-684.5 "/>
<text text-anchor="start" x="426" y="-669.3" font-family="Times,serif" font-size="14.00">create</text>
<text text-anchor="start" x="426" y="-654.3" font-family="Times,serif" font-size="14.00">destroy</text>
<text text-anchor="start" x="426" y="-639.3" font-family="Times,serif" font-size="14.00">edit</text>
<text text-anchor="start" x="426" y="-624.3" font-family="Times,serif" font-size="14.00">index</text>
<text text-anchor="start" x="426" y="-609.3" font-family="Times,serif" font-size="14.00">new</text>
<text text-anchor="start" x="426" y="-594.3" font-family="Times,serif" font-size="14.00">show</text>
<text text-anchor="start" x="426" y="-579.3" font-family="Times,serif" font-size="14.00">update</text>
<polyline fill="none" stroke="black" points="418,-571.5 567,-571.5 "/>
<polyline fill="none" stroke="black" points="418,-547.5 567,-547.5 "/>
<text text-anchor="start" x="426" y="-532.3" font-family="Times,serif" font-size="14.00">_layout</text>
<text text-anchor="start" x="426" y="-517.3" font-family="Times,serif" font-size="14.00">set_user_account</text>
<text text-anchor="start" x="426" y="-502.3" font-family="Times,serif" font-size="14.00">user_account_params</text>
</g>
</g>
</svg>
