<?xml version="1.0" encoding="UTF-8" standalone="no"?>
<!DOCTYPE svg PUBLIC "-//W3C//DTD SVG 1.1//EN"
 "http://www.w3.org/Graphics/SVG/1.1/DTD/svg11.dtd">
<!-- Generated by graphviz version 2.36.0 (20140111.2315)
 -->
<!-- Title: models_diagram Pages: 1 -->
<svg width="947pt" height="374pt"
 viewBox="0.00 0.00 946.78 374.00" xmlns="http://www.w3.org/2000/svg" xmlns:xlink="http://www.w3.org/1999/xlink">
<g id="graph0" class="graph" transform="scale(1 1) rotate(0) translate(4 370)">
<title>models_diagram</title>
<polygon fill="none" stroke="none" points="-4,4 -4,-370 942.782,-370 942.782,4 -4,4"/>
<!-- _diagram_info -->
<g id="node1" class="node"><title>_diagram_info</title>
<text text-anchor="start" x="260.782" y="-351.6" font-family="Times,serif" font-size="13.00">Models diagram</text>
<text text-anchor="start" x="260.782" y="-337.6" font-family="Times,serif" font-size="13.00">Date: May 18 2017 &#45; 19:23</text>
<text text-anchor="start" x="260.782" y="-323.6" font-family="Times,serif" font-size="13.00">Migration version: 20170518131255</text>
<text text-anchor="start" x="260.782" y="-309.6" font-family="Times,serif" font-size="13.00">Generated by RailRoady 1.5.2</text>
<text text-anchor="start" x="260.782" y="-295.6" font-family="Times,serif" font-size="13.00">http://railroady.prestonlee.com</text>
</g>
<!-- Community -->
<g id="node2" class="node"><title>Community</title>
<ellipse fill="none" stroke="black" cx="88.782" cy="-90" rx="53.4184" ry="18"/>
<text text-anchor="middle" x="88.782" y="-86.3" font-family="Times,serif" font-size="14.00">Community</text>
</g>
<!-- ItemFeature -->
<g id="node17" class="node"><title>ItemFeature</title>
<ellipse fill="none" stroke="black" cx="187.782" cy="-18" rx="53.4184" ry="18"/>
<text text-anchor="middle" x="187.782" y="-14.3" font-family="Times,serif" font-size="14.00">ItemFeature</text>
</g>
<!-- Community&#45;&gt;ItemFeature -->
<g id="edge1" class="edge"><title>Community&#45;&gt;ItemFeature</title>
<path fill="none" stroke="#b39697" d="M117.575,-68.6411C130.697,-59.3634 146.186,-48.4113 159.273,-39.158"/>
<ellipse fill="none" stroke="#b39697" cx="114.019" cy="-71.1554" rx="4.00002" ry="4.00002"/>
<ellipse fill="#b39697" stroke="#b39697" cx="162.606" cy="-36.8012" rx="4.00002" ry="4.00002"/>
</g>
<!-- Fnf -->
<g id="node3" class="node"><title>Fnf</title>
<ellipse fill="none" stroke="black" cx="187.782" cy="-90" rx="27" ry="18"/>
<text text-anchor="middle" x="187.782" y="-86.3" font-family="Times,serif" font-size="14.00">Fnf</text>
</g>
<!-- Fnf&#45;&gt;ItemFeature -->
<g id="edge2" class="edge"><title>Fnf&#45;&gt;ItemFeature</title>
<path fill="none" stroke="#9bb801" d="M187.782,-63.6398C187.782,-57.348 187.782,-50.6053 187.782,-44.3156"/>
<ellipse fill="none" stroke="#9bb801" cx="187.782" cy="-67.6966" rx="4" ry="4"/>
<ellipse fill="#9bb801" stroke="#9bb801" cx="187.782" cy="-40.1043" rx="4" ry="4"/>
</g>
<!-- IsdTariff -->
<g id="node4" class="node"><title>IsdTariff</title>
<ellipse fill="none" stroke="black" cx="604.782" cy="-327" rx="42.3701" ry="18"/>
<text text-anchor="middle" x="604.782" y="-323.3" font-family="Times,serif" font-size="14.00">IsdTariff</text>
</g>
<!-- Service -->
<g id="node5" class="node"><title>Service</title>
<ellipse fill="none" stroke="black" cx="171.782" cy="-162" rx="37.0701" ry="18"/>
<text text-anchor="middle" x="171.782" y="-158.3" font-family="Times,serif" font-size="14.00">Service</text>
</g>
<!-- Service&#45;&gt;ItemFeature -->
<g id="edge3" class="edge"><title>Service&#45;&gt;ItemFeature</title>
<path fill="none" stroke="#c5bb2b" d="M198.185,-141.586C208.192,-132.612 218.452,-121.044 223.782,-108 229.835,-93.1889 228.485,-87.2933 223.782,-72 220.447,-61.1554 214.055,-50.5387 207.571,-41.6899"/>
<ellipse fill="none" stroke="#c5bb2b" cx="195.078" cy="-144.234" rx="4.00002" ry="4.00002"/>
<ellipse fill="#c5bb2b" stroke="#c5bb2b" cx="205.084" cy="-38.4622" rx="4.00002" ry="4.00002"/>
</g>
<!-- CallRecord -->
<g id="node6" class="node"><title>CallRecord</title>
<ellipse fill="none" stroke="black" cx="715.782" cy="-327" rx="50.5427" ry="18"/>
<text text-anchor="middle" x="715.782" y="-323.3" font-family="Times,serif" font-size="14.00">CallRecord</text>
</g>
<!-- CallCharged -->
<g id="node9" class="node"><title>CallCharged</title>
<ellipse fill="none" stroke="black" cx="715.782" cy="-234" rx="55.3682" ry="18"/>
<text text-anchor="middle" x="715.782" y="-230.3" font-family="Times,serif" font-size="14.00">CallCharged</text>
</g>
<!-- CallRecord&#45;&gt;CallCharged -->
<g id="edge4" class="edge"><title>CallRecord&#45;&gt;CallCharged</title>
<path fill="none" stroke="#524da7" d="M715.782,-300.729C715.782,-288.118 715.782,-272.905 715.782,-260.292"/>
<ellipse fill="none" stroke="#524da7" cx="715.782" cy="-304.884" rx="4" ry="4"/>
<ellipse fill="#524da7" stroke="#524da7" cx="715.782" cy="-256.04" rx="4" ry="4"/>
</g>
<!-- UserFnf -->
<g id="node7" class="node"><title>UserFnf</title>
<ellipse fill="none" stroke="black" cx="410.782" cy="-162" rx="39.4691" ry="18"/>
<text text-anchor="middle" x="410.782" y="-158.3" font-family="Times,serif" font-size="14.00">UserFnf</text>
</g>
<!-- Offer -->
<g id="node8" class="node"><title>Offer</title>
<ellipse fill="none" stroke="black" cx="514.782" cy="-327" rx="29.3479" ry="18"/>
<text text-anchor="middle" x="514.782" y="-323.3" font-family="Times,serif" font-size="14.00">Offer</text>
</g>
<!-- Accumulator -->
<g id="node11" class="node"><title>Accumulator</title>
<ellipse fill="none" stroke="black" cx="496.782" cy="-90" rx="57.2927" ry="18"/>
<text text-anchor="middle" x="496.782" y="-86.3" font-family="Times,serif" font-size="14.00">Accumulator</text>
</g>
<!-- Offer&#45;&gt;Accumulator -->
<g id="edge6" class="edge"><title>Offer&#45;&gt;Accumulator</title>
<path fill="none" stroke="#fd8112" d="M532.034,-303.605C556.994,-268.268 597.327,-198.038 569.782,-144 562.332,-129.385 548.758,-117.857 535.318,-109.337"/>
<ellipse fill="none" stroke="#fd8112" cx="529.615" cy="-306.951" rx="4.00002" ry="4.00002"/>
<ellipse fill="#fd8112" stroke="#fd8112" cx="531.767" cy="-107.21" rx="4.00002" ry="4.00002"/>
</g>
<!-- UserOffer -->
<g id="node12" class="node"><title>UserOffer</title>
<ellipse fill="none" stroke="black" cx="514.782" cy="-162" rx="46.2191" ry="18"/>
<text text-anchor="middle" x="514.782" y="-158.3" font-family="Times,serif" font-size="14.00">UserOffer</text>
</g>
<!-- Offer&#45;&gt;UserOffer -->
<g id="edge8" class="edge"><title>Offer&#45;&gt;UserOffer</title>
<path fill="none" stroke="#02f041" d="M514.782,-300.52C514.782,-270.6 514.782,-221.164 514.782,-190.427"/>
<ellipse fill="none" stroke="#02f041" cx="514.782" cy="-304.864" rx="4" ry="4"/>
<polygon fill="#02f041" stroke="#02f041" points="514.782,-190.397 519.282,-180.397 514.782,-185.397 514.782,-180.397 514.782,-180.397 514.782,-180.397 514.782,-185.397 510.282,-180.397 514.782,-190.397 514.782,-190.397"/>
</g>
<!-- Priority -->
<g id="node14" class="node"><title>Priority</title>
<ellipse fill="none" stroke="black" cx="617.782" cy="-90" rx="37.5442" ry="18"/>
<text text-anchor="middle" x="617.782" y="-86.3" font-family="Times,serif" font-size="14.00">Priority</text>
</g>
<!-- Offer&#45;&gt;Priority -->
<g id="edge7" class="edge"><title>Offer&#45;&gt;Priority</title>
<path fill="none" stroke="#f6a8cb" d="M535.745,-305.672C553.355,-288.166 576.609,-263.897 582.782,-252 605.638,-207.949 613.59,-149.659 616.341,-116.662"/>
<ellipse fill="none" stroke="#f6a8cb" cx="532.868" cy="-308.512" rx="4.00002" ry="4.00002"/>
<ellipse fill="#f6a8cb" stroke="#f6a8cb" cx="616.66" cy="-112.439" rx="4" ry="4"/>
</g>
<!-- Offer&#45;&gt;ItemFeature -->
<g id="edge5" class="edge"><title>Offer&#45;&gt;ItemFeature</title>
<path fill="none" stroke="#701c37" d="M496.428,-304.337C490.159,-298.183 482.712,-292.058 474.782,-288 397.884,-248.645 367.845,-271.887 283.782,-252 170.429,-225.184 111.091,-265.312 31.782,-180 -1.2133,-144.507 -11.9686,-111.011 16.782,-72 41.7437,-38.1302 88.1217,-25.2606 126.287,-20.6525"/>
<ellipse fill="none" stroke="#701c37" cx="499.507" cy="-307.541" rx="4.00002" ry="4.00002"/>
<ellipse fill="#701c37" stroke="#701c37" cx="130.318" cy="-20.2184" rx="4.00001" ry="4.00001"/>
</g>
<!-- UserAccount -->
<g id="node18" class="node"><title>UserAccount</title>
<ellipse fill="none" stroke="black" cx="349.782" cy="-234" rx="57.2927" ry="18"/>
<text text-anchor="middle" x="349.782" y="-230.3" font-family="Times,serif" font-size="14.00">UserAccount</text>
</g>
<!-- Offer&#45;&gt;UserAccount -->
<g id="edge9" class="edge"><title>Offer&#45;&gt;UserAccount</title>
<path fill="none" stroke="#bafd44" d="M493.962,-303.539C488.11,-298.003 481.5,-292.405 474.782,-288 451.134,-272.493 422.198,-259.881 398.124,-250.855"/>
<polygon fill="#bafd44" stroke="#bafd44" points="494.312,-303.887 498.239,-314.126 497.861,-307.41 501.409,-310.932 501.409,-310.932 501.409,-310.932 497.861,-307.41 504.579,-307.738 494.312,-303.887 494.312,-303.887"/>
<polygon fill="#bafd44" stroke="#bafd44" points="397.87,-250.762 390.021,-243.104 393.173,-249.047 388.477,-247.331 388.477,-247.331 388.477,-247.331 393.173,-249.047 386.933,-251.558 397.87,-250.762 397.87,-250.762"/>
</g>
<!-- ApplicationRecord -->
<g id="node10" class="node"><title>ApplicationRecord</title>
<ellipse fill="none" stroke="black" cx="861.782" cy="-327" rx="77.0154" ry="18"/>
<text text-anchor="middle" x="861.782" y="-323.3" font-family="Times,serif" font-size="14.00">ApplicationRecord</text>
</g>
<!-- Product -->
<g id="node13" class="node"><title>Product</title>
<ellipse fill="none" stroke="black" cx="78.782" cy="-162" rx="38.0212" ry="18"/>
<text text-anchor="middle" x="78.782" y="-158.3" font-family="Times,serif" font-size="14.00">Product</text>
</g>
<!-- Product&#45;&gt;Community -->
<g id="edge12" class="edge"><title>Product&#45;&gt;Community</title>
<path fill="none" stroke="#26e710" d="M82.4049,-135.64C83.3038,-129.348 84.267,-122.605 85.1655,-116.316"/>
<ellipse fill="none" stroke="#26e710" cx="81.8197" cy="-139.737" rx="4.00001" ry="4.00001"/>
<ellipse fill="#26e710" stroke="#26e710" cx="85.7728" cy="-112.064" rx="4.00001" ry="4.00001"/>
</g>
<!-- Product&#45;&gt;Fnf -->
<g id="edge11" class="edge"><title>Product&#45;&gt;Fnf</title>
<path fill="none" stroke="#6c2c39" d="M107.451,-142.589C124.296,-131.771 145.424,-118.202 161.784,-107.696"/>
<ellipse fill="none" stroke="#6c2c39" cx="103.944" cy="-144.841" rx="4.00002" ry="4.00002"/>
<ellipse fill="#6c2c39" stroke="#6c2c39" cx="165.567" cy="-105.267" rx="4.00002" ry="4.00002"/>
</g>
<!-- Product&#45;&gt;ItemFeature -->
<g id="edge10" class="edge"><title>Product&#45;&gt;ItemFeature</title>
<path fill="none" stroke="#e490e9" d="M52.8898,-140.898C32.292,-122.423 9.42389,-94.5631 25.782,-72 48.7124,-40.3717 91.074,-27.2696 126.728,-21.9972"/>
<ellipse fill="none" stroke="#e490e9" cx="56.1356" cy="-143.701" rx="4.00002" ry="4.00002"/>
<ellipse fill="#e490e9" stroke="#e490e9" cx="130.727" cy="-21.4617" rx="4.00001" ry="4.00001"/>
</g>
<!-- ShortCode -->
<g id="node15" class="node"><title>ShortCode</title>
<ellipse fill="none" stroke="black" cx="356.782" cy="-90" rx="48.1437" ry="18"/>
<text text-anchor="middle" x="356.782" y="-86.3" font-family="Times,serif" font-size="14.00">ShortCode</text>
</g>
<!-- ShortCode&#45;&gt;ItemFeature -->
<g id="edge13" class="edge"><title>ShortCode&#45;&gt;ItemFeature</title>
<path fill="none" stroke="#2f28e1" d="M318.131,-72.9907C291.1,-61.7946 255.092,-46.8799 227.771,-35.5636"/>
<ellipse fill="none" stroke="#2f28e1" cx="322.089" cy="-74.6302" rx="4.00001" ry="4.00001"/>
<ellipse fill="#2f28e1" stroke="#2f28e1" cx="224.006" cy="-34.0041" rx="4.00002" ry="4.00002"/>
</g>
<!-- BonusAccount -->
<g id="node16" class="node"><title>BonusAccount</title>
<ellipse fill="none" stroke="black" cx="289.782" cy="-162" rx="63.0666" ry="18"/>
<text text-anchor="middle" x="289.782" y="-158.3" font-family="Times,serif" font-size="14.00">BonusAccount</text>
</g>
<!-- BonusAccount&#45;&gt;Accumulator -->
<g id="edge15" class="edge"><title>BonusAccount&#45;&gt;Accumulator</title>
<path fill="none" stroke="#5de43f" d="M336.421,-145.228C370.825,-133.594 417.385,-117.849 451.471,-106.323"/>
<ellipse fill="none" stroke="#5de43f" cx="332.506" cy="-146.552" rx="4.00001" ry="4.00001"/>
<ellipse fill="#5de43f" stroke="#5de43f" cx="455.627" cy="-104.917" rx="4.00001" ry="4.00001"/>
</g>
<!-- BonusAccount&#45;&gt;Priority -->
<g id="edge16" class="edge"><title>BonusAccount&#45;&gt;Priority</title>
<path fill="none" stroke="#35d20d" d="M344.21,-147.817C350.13,-146.482 356.076,-145.184 361.782,-144 450.645,-125.566 474.596,-129.44 562.782,-108 568.457,-106.62 574.407,-104.985 580.211,-103.282"/>
<ellipse fill="none" stroke="#35d20d" cx="340.076" cy="-148.761" rx="4.00001" ry="4.00001"/>
<ellipse fill="#35d20d" stroke="#35d20d" cx="584.165" cy="-102.09" rx="4.00001" ry="4.00001"/>
</g>
<!-- BonusAccount&#45;&gt;ItemFeature -->
<g id="edge14" class="edge"><title>BonusAccount&#45;&gt;ItemFeature</title>
<path fill="none" stroke="#c91d6a" d="M278.682,-136.605C269.706,-118.062 256.078,-92.3596 240.782,-72 232.447,-60.9055 221.859,-49.8572 212.342,-40.7419"/>
<ellipse fill="none" stroke="#c91d6a" cx="280.518" cy="-140.465" rx="4.00002" ry="4.00002"/>
<ellipse fill="#c91d6a" stroke="#c91d6a" cx="209.193" cy="-37.7872" rx="4.00002" ry="4.00002"/>
</g>
<!-- UserAccount&#45;&gt;Service -->
<g id="edge18" class="edge"><title>UserAccount&#45;&gt;Service</title>
<path fill="none" stroke="#9db7fc" d="M307.681,-216.443C277.018,-204.385 235.957,-188.237 207.021,-176.858"/>
<ellipse fill="none" stroke="#9db7fc" cx="311.739" cy="-218.039" rx="4.00001" ry="4.00001"/>
<ellipse fill="#9db7fc" stroke="#9db7fc" cx="203.293" cy="-175.392" rx="4.00001" ry="4.00001"/>
</g>
<!-- UserAccount&#45;&gt;UserFnf -->
<g id="edge21" class="edge"><title>UserAccount&#45;&gt;UserFnf</title>
<path fill="none" stroke="#ad327f" d="M369.57,-210.293C376.109,-202.789 383.401,-194.421 390.011,-186.835"/>
<ellipse fill="none" stroke="#ad327f" cx="366.866" cy="-213.395" rx="4.00002" ry="4.00002"/>
<polygon fill="#ad327f" stroke="#ad327f" points="390.28,-186.527 400.242,-181.945 393.565,-182.758 396.85,-178.988 396.85,-178.988 396.85,-178.988 393.565,-182.758 393.457,-176.032 390.28,-186.527 390.28,-186.527"/>
</g>
<!-- UserAccount&#45;&gt;UserOffer -->
<g id="edge20" class="edge"><title>UserAccount&#45;&gt;UserOffer</title>
<path fill="none" stroke="#f88ba2" d="M389.972,-215.95C415.904,-204.948 449.482,-190.703 475.278,-179.759"/>
<ellipse fill="none" stroke="#f88ba2" cx="386.063" cy="-217.608" rx="4.00002" ry="4.00002"/>
<polygon fill="#f88ba2" stroke="#f88ba2" points="475.545,-179.646 486.508,-179.883 480.148,-177.693 484.751,-175.741 484.751,-175.741 484.751,-175.741 480.148,-177.693 482.993,-171.598 475.545,-179.646 475.545,-179.646"/>
</g>
<!-- UserAccount&#45;&gt;Product -->
<g id="edge17" class="edge"><title>UserAccount&#45;&gt;Product</title>
<path fill="none" stroke="#168ed1" d="M295.05,-221.888C249.411,-212.184 182.865,-197.015 125.782,-180 122.321,-178.968 118.742,-177.823 115.177,-176.627"/>
<ellipse fill="none" stroke="#168ed1" cx="299.125" cy="-222.748" rx="4.00001" ry="4.00001"/>
<ellipse fill="#168ed1" stroke="#168ed1" cx="111.222" cy="-175.262" rx="4.00001" ry="4.00001"/>
</g>
<!-- UserAccount&#45;&gt;BonusAccount -->
<g id="edge19" class="edge"><title>UserAccount&#45;&gt;BonusAccount</title>
<path fill="none" stroke="#92bc10" d="M330.234,-210.194C324.038,-202.965 317.163,-194.944 310.864,-187.596"/>
<ellipse fill="none" stroke="#92bc10" cx="332.96" cy="-213.374" rx="4.00002" ry="4.00002"/>
<polygon fill="#92bc10" stroke="#92bc10" points="310.824,-187.549 307.733,-177.028 307.57,-183.753 304.316,-179.956 304.316,-179.956 304.316,-179.956 307.57,-183.753 300.899,-182.885 310.824,-187.549 310.824,-187.549"/>
</g>
</g>
</svg>
