<?xml version="1.0" encoding="UTF-8" standalone="no"?>
<!DOCTYPE svg PUBLIC "-//W3C//DTD SVG 1.1//EN"
 "http://www.w3.org/Graphics/SVG/1.1/DTD/svg11.dtd">
<!-- Generated by graphviz version 2.36.0 (20140111.2315)
 -->
<!-- Title: models_diagram Pages: 1 -->
<svg width="1409pt" height="912pt"
 viewBox="0.00 0.00 1409.23 912.00" xmlns="http://www.w3.org/2000/svg" xmlns:xlink="http://www.w3.org/1999/xlink">
<g id="graph0" class="graph" transform="scale(1 1) rotate(0) translate(4 908)">
<title>models_diagram</title>
<polygon fill="none" stroke="none" points="-4,4 -4,-908 1405.23,-908 1405.23,4 -4,4"/>
<!-- _diagram_info -->
<g id="node1" class="node"><title>_diagram_info</title>
<text text-anchor="start" x="488.233" y="-852.6" font-family="Times,serif" font-size="13.00">Models diagram</text>
<text text-anchor="start" x="488.233" y="-838.6" font-family="Times,serif" font-size="13.00">Date: May 18 2017 &#45; 19:23</text>
<text text-anchor="start" x="488.233" y="-824.6" font-family="Times,serif" font-size="13.00">Migration version: 20170518131255</text>
<text text-anchor="start" x="488.233" y="-810.6" font-family="Times,serif" font-size="13.00">Generated by RailRoady 1.5.2</text>
<text text-anchor="start" x="488.233" y="-796.6" font-family="Times,serif" font-size="13.00">http://railroady.prestonlee.com</text>
</g>
<!-- Community -->
<g id="node2" class="node"><title>Community</title>
<path fill="none" stroke="black" d="M92.733,-271C92.733,-271 199.733,-271 199.733,-271 205.733,-271 211.733,-277 211.733,-283 211.733,-283 211.733,-365 211.733,-365 211.733,-371 205.733,-377 199.733,-377 199.733,-377 92.733,-377 92.733,-377 86.733,-377 80.733,-371 80.733,-365 80.733,-365 80.733,-283 80.733,-283 80.733,-277 86.733,-271 92.733,-271"/>
<text text-anchor="middle" x="146.233" y="-361.8" font-family="Times,serif" font-size="14.00">Community</text>
<polyline fill="none" stroke="black" points="80.733,-354 211.733,-354 "/>
<text text-anchor="start" x="88.733" y="-338.8" font-family="Times,serif" font-size="14.00">id :int(11)</text>
<text text-anchor="start" x="88.733" y="-323.8" font-family="Times,serif" font-size="14.00">name :varchar(255)</text>
<text text-anchor="start" x="88.733" y="-308.8" font-family="Times,serif" font-size="14.00">product_id :int(11)</text>
<text text-anchor="start" x="88.733" y="-293.8" font-family="Times,serif" font-size="14.00">created_at :datetime</text>
<text text-anchor="start" x="88.733" y="-278.8" font-family="Times,serif" font-size="14.00">updated_at :datetime</text>
</g>
<!-- ItemFeature -->
<g id="node17" class="node"><title>ItemFeature</title>
<path fill="none" stroke="black" d="M191.733,-0.5C191.733,-0.5 398.733,-0.5 398.733,-0.5 404.733,-0.5 410.733,-6.5 410.733,-12.5 410.733,-12.5 410.733,-199.5 410.733,-199.5 410.733,-205.5 404.733,-211.5 398.733,-211.5 398.733,-211.5 191.733,-211.5 191.733,-211.5 185.733,-211.5 179.733,-205.5 179.733,-199.5 179.733,-199.5 179.733,-12.5 179.733,-12.5 179.733,-6.5 185.733,-0.5 191.733,-0.5"/>
<text text-anchor="middle" x="295.233" y="-196.3" font-family="Times,serif" font-size="14.00">ItemFeature</text>
<polyline fill="none" stroke="black" points="179.733,-188.5 410.733,-188.5 "/>
<text text-anchor="start" x="187.733" y="-173.3" font-family="Times,serif" font-size="14.00">id :int(11)</text>
<text text-anchor="start" x="187.733" y="-158.3" font-family="Times,serif" font-size="14.00">pulse :varchar(255)</text>
<text text-anchor="start" x="187.733" y="-143.3" font-family="Times,serif" font-size="14.00">tariff_on_net :float</text>
<text text-anchor="start" x="187.733" y="-128.3" font-family="Times,serif" font-size="14.00">tariff_off_net :float</text>
<text text-anchor="start" x="187.733" y="-113.3" font-family="Times,serif" font-size="14.00">tariff_on_net_on_atw :float</text>
<text text-anchor="start" x="187.733" y="-98.3" font-family="Times,serif" font-size="14.00">tariff_off_net_on_atw :float</text>
<text text-anchor="start" x="187.733" y="-83.3" font-family="Times,serif" font-size="14.00">applicable_time_window :varchar(255)</text>
<text text-anchor="start" x="187.733" y="-68.3" font-family="Times,serif" font-size="14.00">call_destination :varchar(255)</text>
<text text-anchor="start" x="187.733" y="-53.3" font-family="Times,serif" font-size="14.00">itemable_type :varchar(255)</text>
<text text-anchor="start" x="187.733" y="-38.3" font-family="Times,serif" font-size="14.00">itemable_id :int(11)</text>
<text text-anchor="start" x="187.733" y="-23.3" font-family="Times,serif" font-size="14.00">created_at :datetime</text>
<text text-anchor="start" x="187.733" y="-8.3" font-family="Times,serif" font-size="14.00">updated_at :datetime</text>
</g>
<!-- Community&#45;&gt;ItemFeature -->
<g id="edge1" class="edge"><title>Community&#45;&gt;ItemFeature</title>
<path fill="none" stroke="#d04768" d="M186.85,-264.119C196.697,-249.845 207.546,-234.116 218.461,-218.293"/>
<ellipse fill="none" stroke="#d04768" cx="184.383" cy="-267.695" rx="4.00002" ry="4.00002"/>
<ellipse fill="#d04768" stroke="#d04768" cx="220.869" cy="-214.803" rx="4.00002" ry="4.00002"/>
</g>
<!-- Fnf -->
<g id="node3" class="node"><title>Fnf</title>
<path fill="none" stroke="black" d="M241.733,-271C241.733,-271 348.733,-271 348.733,-271 354.733,-271 360.733,-277 360.733,-283 360.733,-283 360.733,-365 360.733,-365 360.733,-371 354.733,-377 348.733,-377 348.733,-377 241.733,-377 241.733,-377 235.733,-377 229.733,-371 229.733,-365 229.733,-365 229.733,-283 229.733,-283 229.733,-277 235.733,-271 241.733,-271"/>
<text text-anchor="middle" x="295.233" y="-361.8" font-family="Times,serif" font-size="14.00">Fnf</text>
<polyline fill="none" stroke="black" points="229.733,-354 360.733,-354 "/>
<text text-anchor="start" x="237.733" y="-338.8" font-family="Times,serif" font-size="14.00">id :int(11)</text>
<text text-anchor="start" x="237.733" y="-323.8" font-family="Times,serif" font-size="14.00">no_of_fnf :int(11)</text>
<text text-anchor="start" x="237.733" y="-308.8" font-family="Times,serif" font-size="14.00">product_id :int(11)</text>
<text text-anchor="start" x="237.733" y="-293.8" font-family="Times,serif" font-size="14.00">created_at :datetime</text>
<text text-anchor="start" x="237.733" y="-278.8" font-family="Times,serif" font-size="14.00">updated_at :datetime</text>
</g>
<!-- Fnf&#45;&gt;ItemFeature -->
<g id="edge2" class="edge"><title>Fnf&#45;&gt;ItemFeature</title>
<path fill="none" stroke="#76e78b" d="M295.233,-262.804C295.233,-249.326 295.233,-234.604 295.233,-219.761"/>
<ellipse fill="none" stroke="#76e78b" cx="295.233" cy="-266.988" rx="4" ry="4"/>
<ellipse fill="#76e78b" stroke="#76e78b" cx="295.233" cy="-215.51" rx="4" ry="4"/>
</g>
<!-- IsdTariff -->
<g id="node4" class="node"><title>IsdTariff</title>
<path fill="none" stroke="black" d="M873.733,-767.5C873.733,-767.5 1024.73,-767.5 1024.73,-767.5 1030.73,-767.5 1036.73,-773.5 1036.73,-779.5 1036.73,-779.5 1036.73,-876.5 1036.73,-876.5 1036.73,-882.5 1030.73,-888.5 1024.73,-888.5 1024.73,-888.5 873.733,-888.5 873.733,-888.5 867.733,-888.5 861.733,-882.5 861.733,-876.5 861.733,-876.5 861.733,-779.5 861.733,-779.5 861.733,-773.5 867.733,-767.5 873.733,-767.5"/>
<text text-anchor="middle" x="949.233" y="-873.3" font-family="Times,serif" font-size="14.00">IsdTariff</text>
<polyline fill="none" stroke="black" points="861.733,-865.5 1036.73,-865.5 "/>
<text text-anchor="start" x="869.733" y="-850.3" font-family="Times,serif" font-size="14.00">id :int(11)</text>
<text text-anchor="start" x="869.733" y="-835.3" font-family="Times,serif" font-size="14.00">pulse :varchar(255)</text>
<text text-anchor="start" x="869.733" y="-820.3" font-family="Times,serif" font-size="14.00">tariff :float</text>
<text text-anchor="start" x="869.733" y="-805.3" font-family="Times,serif" font-size="14.00">number_prefix :varchar(255)</text>
<text text-anchor="start" x="869.733" y="-790.3" font-family="Times,serif" font-size="14.00">created_at :datetime</text>
<text text-anchor="start" x="869.733" y="-775.3" font-family="Times,serif" font-size="14.00">updated_at :datetime</text>
</g>
<!-- Service -->
<g id="node5" class="node"><title>Service</title>
<path fill="none" stroke="black" d="M240.733,-451.5C240.733,-451.5 347.733,-451.5 347.733,-451.5 353.733,-451.5 359.733,-457.5 359.733,-463.5 359.733,-463.5 359.733,-530.5 359.733,-530.5 359.733,-536.5 353.733,-542.5 347.733,-542.5 347.733,-542.5 240.733,-542.5 240.733,-542.5 234.733,-542.5 228.733,-536.5 228.733,-530.5 228.733,-530.5 228.733,-463.5 228.733,-463.5 228.733,-457.5 234.733,-451.5 240.733,-451.5"/>
<text text-anchor="middle" x="294.233" y="-527.3" font-family="Times,serif" font-size="14.00">Service</text>
<polyline fill="none" stroke="black" points="228.733,-519.5 359.733,-519.5 "/>
<text text-anchor="start" x="236.733" y="-504.3" font-family="Times,serif" font-size="14.00">id :int(11)</text>
<text text-anchor="start" x="236.733" y="-489.3" font-family="Times,serif" font-size="14.00">name :varchar(255)</text>
<text text-anchor="start" x="236.733" y="-474.3" font-family="Times,serif" font-size="14.00">created_at :datetime</text>
<text text-anchor="start" x="236.733" y="-459.3" font-family="Times,serif" font-size="14.00">updated_at :datetime</text>
</g>
<!-- Service&#45;&gt;ItemFeature -->
<g id="edge3" class="edge"><title>Service&#45;&gt;ItemFeature</title>
<path fill="none" stroke="#33e923" d="M344.057,-444.911C354.353,-431.342 363.73,-415.983 369.233,-400 391.226,-336.125 385.4,-313.593 369.233,-248 366.884,-238.469 363.763,-228.869 360.129,-219.403"/>
<ellipse fill="none" stroke="#33e923" cx="341.413" cy="-448.277" rx="4.00002" ry="4.00002"/>
<ellipse fill="#33e923" stroke="#33e923" cx="358.594" cy="-215.559" rx="4.00001" ry="4.00001"/>
</g>
<!-- CallRecord -->
<g id="node6" class="node"><title>CallRecord</title>
<path fill="none" stroke="black" d="M1066.73,-752.5C1066.73,-752.5 1215.73,-752.5 1215.73,-752.5 1221.73,-752.5 1227.73,-758.5 1227.73,-764.5 1227.73,-764.5 1227.73,-891.5 1227.73,-891.5 1227.73,-897.5 1221.73,-903.5 1215.73,-903.5 1215.73,-903.5 1066.73,-903.5 1066.73,-903.5 1060.73,-903.5 1054.73,-897.5 1054.73,-891.5 1054.73,-891.5 1054.73,-764.5 1054.73,-764.5 1054.73,-758.5 1060.73,-752.5 1066.73,-752.5"/>
<text text-anchor="middle" x="1141.23" y="-888.3" font-family="Times,serif" font-size="14.00">CallRecord</text>
<polyline fill="none" stroke="black" points="1054.73,-880.5 1227.73,-880.5 "/>
<text text-anchor="start" x="1062.73" y="-865.3" font-family="Times,serif" font-size="14.00">id :int(11)</text>
<text text-anchor="start" x="1062.73" y="-850.3" font-family="Times,serif" font-size="14.00">user_account_id :int(11)</text>
<text text-anchor="start" x="1062.73" y="-835.3" font-family="Times,serif" font-size="14.00">call_destinatio :varchar(255)</text>
<text text-anchor="start" x="1062.73" y="-820.3" font-family="Times,serif" font-size="14.00">duration :int(11)</text>
<text text-anchor="start" x="1062.73" y="-805.3" font-family="Times,serif" font-size="14.00">created_at :datetime</text>
<text text-anchor="start" x="1062.73" y="-790.3" font-family="Times,serif" font-size="14.00">updated_at :datetime</text>
<text text-anchor="start" x="1062.73" y="-775.3" font-family="Times,serif" font-size="14.00">short_code_id :int(11)</text>
<text text-anchor="start" x="1062.73" y="-760.3" font-family="Times,serif" font-size="14.00">isd_tariff_id :int(11)</text>
</g>
<!-- CallCharged -->
<g id="node9" class="node"><title>CallCharged</title>
<path fill="none" stroke="black" d="M1083.73,-602C1083.73,-602 1198.73,-602 1198.73,-602 1204.73,-602 1210.73,-608 1210.73,-614 1210.73,-614 1210.73,-696 1210.73,-696 1210.73,-702 1204.73,-708 1198.73,-708 1198.73,-708 1083.73,-708 1083.73,-708 1077.73,-708 1071.73,-702 1071.73,-696 1071.73,-696 1071.73,-614 1071.73,-614 1071.73,-608 1077.73,-602 1083.73,-602"/>
<text text-anchor="middle" x="1141.23" y="-692.8" font-family="Times,serif" font-size="14.00">CallCharged</text>
<polyline fill="none" stroke="black" points="1071.73,-685 1210.73,-685 "/>
<text text-anchor="start" x="1079.73" y="-669.8" font-family="Times,serif" font-size="14.00">id :int(11)</text>
<text text-anchor="start" x="1079.73" y="-654.8" font-family="Times,serif" font-size="14.00">call_record_id :int(11)</text>
<text text-anchor="start" x="1079.73" y="-639.8" font-family="Times,serif" font-size="14.00">charged_value :float</text>
<text text-anchor="start" x="1079.73" y="-624.8" font-family="Times,serif" font-size="14.00">created_at :datetime</text>
<text text-anchor="start" x="1079.73" y="-609.8" font-family="Times,serif" font-size="14.00">updated_at :datetime</text>
</g>
<!-- CallRecord&#45;&gt;CallCharged -->
<g id="edge4" class="edge"><title>CallRecord&#45;&gt;CallCharged</title>
<path fill="none" stroke="#0d66a0" d="M1141.23,-744.407C1141.23,-734.959 1141.23,-725.463 1141.23,-716.383"/>
<ellipse fill="none" stroke="#0d66a0" cx="1141.23" cy="-748.494" rx="4" ry="4"/>
<ellipse fill="#0d66a0" stroke="#0d66a0" cx="1141.23" cy="-712.173" rx="4" ry="4"/>
</g>
<!-- UserFnf -->
<g id="node7" class="node"><title>UserFnf</title>
<path fill="none" stroke="black" d="M548.733,-444C548.733,-444 673.733,-444 673.733,-444 679.733,-444 685.733,-450 685.733,-456 685.733,-456 685.733,-538 685.733,-538 685.733,-544 679.733,-550 673.733,-550 673.733,-550 548.733,-550 548.733,-550 542.733,-550 536.733,-544 536.733,-538 536.733,-538 536.733,-456 536.733,-456 536.733,-450 542.733,-444 548.733,-444"/>
<text text-anchor="middle" x="611.233" y="-534.8" font-family="Times,serif" font-size="14.00">UserFnf</text>
<polyline fill="none" stroke="black" points="536.733,-527 685.733,-527 "/>
<text text-anchor="start" x="544.733" y="-511.8" font-family="Times,serif" font-size="14.00">id :int(11)</text>
<text text-anchor="start" x="544.733" y="-496.8" font-family="Times,serif" font-size="14.00">user_account_id :int(11)</text>
<text text-anchor="start" x="544.733" y="-481.8" font-family="Times,serif" font-size="14.00">fnf_no :varchar(255)</text>
<text text-anchor="start" x="544.733" y="-466.8" font-family="Times,serif" font-size="14.00">created_at :datetime</text>
<text text-anchor="start" x="544.733" y="-451.8" font-family="Times,serif" font-size="14.00">updated_at :datetime</text>
</g>
<!-- Offer -->
<g id="node8" class="node"><title>Offer</title>
<path fill="none" stroke="black" d="M724.733,-782.5C724.733,-782.5 831.733,-782.5 831.733,-782.5 837.733,-782.5 843.733,-788.5 843.733,-794.5 843.733,-794.5 843.733,-861.5 843.733,-861.5 843.733,-867.5 837.733,-873.5 831.733,-873.5 831.733,-873.5 724.733,-873.5 724.733,-873.5 718.733,-873.5 712.733,-867.5 712.733,-861.5 712.733,-861.5 712.733,-794.5 712.733,-794.5 712.733,-788.5 718.733,-782.5 724.733,-782.5"/>
<text text-anchor="middle" x="778.233" y="-858.3" font-family="Times,serif" font-size="14.00">Offer</text>
<polyline fill="none" stroke="black" points="712.733,-850.5 843.733,-850.5 "/>
<text text-anchor="start" x="720.733" y="-835.3" font-family="Times,serif" font-size="14.00">id :int(11)</text>
<text text-anchor="start" x="720.733" y="-820.3" font-family="Times,serif" font-size="14.00">name :varchar(255)</text>
<text text-anchor="start" x="720.733" y="-805.3" font-family="Times,serif" font-size="14.00">created_at :datetime</text>
<text text-anchor="start" x="720.733" y="-790.3" font-family="Times,serif" font-size="14.00">updated_at :datetime</text>
</g>
<!-- Accumulator -->
<g id="node11" class="node"><title>Accumulator</title>
<path fill="none" stroke="black" d="M642.233,-248.5C642.233,-248.5 798.233,-248.5 798.233,-248.5 804.233,-248.5 810.233,-254.5 810.233,-260.5 810.233,-260.5 810.233,-387.5 810.233,-387.5 810.233,-393.5 804.233,-399.5 798.233,-399.5 798.233,-399.5 642.233,-399.5 642.233,-399.5 636.233,-399.5 630.233,-393.5 630.233,-387.5 630.233,-387.5 630.233,-260.5 630.233,-260.5 630.233,-254.5 636.233,-248.5 642.233,-248.5"/>
<text text-anchor="middle" x="720.233" y="-384.3" font-family="Times,serif" font-size="14.00">Accumulator</text>
<polyline fill="none" stroke="black" points="630.233,-376.5 810.233,-376.5 "/>
<text text-anchor="start" x="638.233" y="-361.3" font-family="Times,serif" font-size="14.00">id :int(11)</text>
<text text-anchor="start" x="638.233" y="-346.3" font-family="Times,serif" font-size="14.00">acc_val_change :float</text>
<text text-anchor="start" x="638.233" y="-331.3" font-family="Times,serif" font-size="14.00">acc_val_available :float</text>
<text text-anchor="start" x="638.233" y="-316.3" font-family="Times,serif" font-size="14.00">acc_val_before :float</text>
<text text-anchor="start" x="638.233" y="-301.3" font-family="Times,serif" font-size="14.00">imageable_type :varchar(255)</text>
<text text-anchor="start" x="638.233" y="-286.3" font-family="Times,serif" font-size="14.00">imageable_id :int(11)</text>
<text text-anchor="start" x="638.233" y="-271.3" font-family="Times,serif" font-size="14.00">created_at :datetime</text>
<text text-anchor="start" x="638.233" y="-256.3" font-family="Times,serif" font-size="14.00">updated_at :datetime</text>
</g>
<!-- Offer&#45;&gt;Accumulator -->
<g id="edge6" class="edge"><title>Offer&#45;&gt;Accumulator</title>
<path fill="none" stroke="#73cbbf" d="M809.615,-774.969C851.943,-697.524 916.06,-548.94 861.233,-436 859.648,-432.736 840.539,-417.144 816.872,-398.63"/>
<ellipse fill="none" stroke="#73cbbf" cx="807.529" cy="-778.738" rx="4.00002" ry="4.00002"/>
<ellipse fill="#73cbbf" stroke="#73cbbf" cx="813.582" cy="-396.064" rx="4.00002" ry="4.00002"/>
</g>
<!-- UserOffer -->
<g id="node12" class="node"><title>UserOffer</title>
<path fill="none" stroke="black" d="M715.733,-436.5C715.733,-436.5 840.733,-436.5 840.733,-436.5 846.733,-436.5 852.733,-442.5 852.733,-448.5 852.733,-448.5 852.733,-545.5 852.733,-545.5 852.733,-551.5 846.733,-557.5 840.733,-557.5 840.733,-557.5 715.733,-557.5 715.733,-557.5 709.733,-557.5 703.733,-551.5 703.733,-545.5 703.733,-545.5 703.733,-448.5 703.733,-448.5 703.733,-442.5 709.733,-436.5 715.733,-436.5"/>
<text text-anchor="middle" x="778.233" y="-542.3" font-family="Times,serif" font-size="14.00">UserOffer</text>
<polyline fill="none" stroke="black" points="703.733,-534.5 852.733,-534.5 "/>
<text text-anchor="start" x="711.733" y="-519.3" font-family="Times,serif" font-size="14.00">id :int(11)</text>
<text text-anchor="start" x="711.733" y="-504.3" font-family="Times,serif" font-size="14.00">user_account_id :int(11)</text>
<text text-anchor="start" x="711.733" y="-489.3" font-family="Times,serif" font-size="14.00">offer_id :int(11)</text>
<text text-anchor="start" x="711.733" y="-474.3" font-family="Times,serif" font-size="14.00">priority_value :int(11)</text>
<text text-anchor="start" x="711.733" y="-459.3" font-family="Times,serif" font-size="14.00">created_at :datetime</text>
<text text-anchor="start" x="711.733" y="-444.3" font-family="Times,serif" font-size="14.00">updated_at :datetime</text>
</g>
<!-- Offer&#45;&gt;UserOffer -->
<g id="edge8" class="edge"><title>Offer&#45;&gt;UserOffer</title>
<path fill="none" stroke="#975689" d="M778.233,-774.193C778.233,-718.182 778.233,-629.432 778.233,-567.709"/>
<ellipse fill="none" stroke="#975689" cx="778.233" cy="-778.287" rx="4" ry="4"/>
<polygon fill="#975689" stroke="#975689" points="778.233,-567.662 782.733,-557.662 778.233,-562.662 778.233,-557.662 778.233,-557.662 778.233,-557.662 778.233,-562.662 773.733,-557.662 778.233,-567.662 778.233,-567.662"/>
</g>
<!-- Priority -->
<g id="node14" class="node"><title>Priority</title>
<path fill="none" stroke="black" d="M841.733,-263.5C841.733,-263.5 990.733,-263.5 990.733,-263.5 996.733,-263.5 1002.73,-269.5 1002.73,-275.5 1002.73,-275.5 1002.73,-372.5 1002.73,-372.5 1002.73,-378.5 996.733,-384.5 990.733,-384.5 990.733,-384.5 841.733,-384.5 841.733,-384.5 835.733,-384.5 829.733,-378.5 829.733,-372.5 829.733,-372.5 829.733,-275.5 829.733,-275.5 829.733,-269.5 835.733,-263.5 841.733,-263.5"/>
<text text-anchor="middle" x="916.233" y="-369.3" font-family="Times,serif" font-size="14.00">Priority</text>
<polyline fill="none" stroke="black" points="829.733,-361.5 1002.73,-361.5 "/>
<text text-anchor="start" x="837.733" y="-346.3" font-family="Times,serif" font-size="14.00">id :int(11)</text>
<text text-anchor="start" x="837.733" y="-331.3" font-family="Times,serif" font-size="14.00">value :int(11)</text>
<text text-anchor="start" x="837.733" y="-316.3" font-family="Times,serif" font-size="14.00">prioritize_type :varchar(255)</text>
<text text-anchor="start" x="837.733" y="-301.3" font-family="Times,serif" font-size="14.00">prioritize_id :int(11)</text>
<text text-anchor="start" x="837.733" y="-286.3" font-family="Times,serif" font-size="14.00">created_at :datetime</text>
<text text-anchor="start" x="837.733" y="-271.3" font-family="Times,serif" font-size="14.00">updated_at :datetime</text>
</g>
<!-- Offer&#45;&gt;Priority -->
<g id="edge7" class="edge"><title>Offer&#45;&gt;Priority</title>
<path fill="none" stroke="#f3ab30" d="M826.604,-776.43C846.971,-753.989 867.334,-729.621 873.233,-716 919.152,-609.975 923.157,-473.311 920.593,-392.816"/>
<ellipse fill="none" stroke="#f3ab30" cx="823.853" cy="-779.439" rx="4.00002" ry="4.00002"/>
<ellipse fill="#f3ab30" stroke="#f3ab30" cx="920.449" cy="-388.722" rx="4" ry="4"/>
</g>
<!-- Offer&#45;&gt;ItemFeature -->
<g id="edge5" class="edge"><title>Offer&#45;&gt;ItemFeature</title>
<path fill="none" stroke="#72b44c" d="M736.422,-776.551C726.191,-767.008 714.596,-758.113 702.233,-752 599.24,-701.07 557.006,-746.509 446.233,-716 271.474,-667.868 181.194,-701.335 70.233,-558 -14.3388,-448.753 -22.2413,-367.417 47.233,-248 74.6539,-200.867 124.359,-168.195 172.11,-146.264"/>
<ellipse fill="none" stroke="#72b44c" cx="739.41" cy="-779.445" rx="4.00002" ry="4.00002"/>
<ellipse fill="#72b44c" stroke="#72b44c" cx="175.795" cy="-144.61" rx="4.00002" ry="4.00002"/>
</g>
<!-- UserAccount -->
<g id="node18" class="node"><title>UserAccount</title>
<path fill="none" stroke="black" d="M467.733,-594.5C467.733,-594.5 590.733,-594.5 590.733,-594.5 596.733,-594.5 602.733,-600.5 602.733,-606.5 602.733,-606.5 602.733,-703.5 602.733,-703.5 602.733,-709.5 596.733,-715.5 590.733,-715.5 590.733,-715.5 467.733,-715.5 467.733,-715.5 461.733,-715.5 455.733,-709.5 455.733,-703.5 455.733,-703.5 455.733,-606.5 455.733,-606.5 455.733,-600.5 461.733,-594.5 467.733,-594.5"/>
<text text-anchor="middle" x="529.233" y="-700.3" font-family="Times,serif" font-size="14.00">UserAccount</text>
<polyline fill="none" stroke="black" points="455.733,-692.5 602.733,-692.5 "/>
<text text-anchor="start" x="463.733" y="-677.3" font-family="Times,serif" font-size="14.00">id :int(11)</text>
<text text-anchor="start" x="463.733" y="-662.3" font-family="Times,serif" font-size="14.00">name :varchar(255)</text>
<text text-anchor="start" x="463.733" y="-647.3" font-family="Times,serif" font-size="14.00">phone_no :varchar(255)</text>
<text text-anchor="start" x="463.733" y="-632.3" font-family="Times,serif" font-size="14.00">acc_val_before :float</text>
<text text-anchor="start" x="463.733" y="-617.3" font-family="Times,serif" font-size="14.00">created_at :datetime</text>
<text text-anchor="start" x="463.733" y="-602.3" font-family="Times,serif" font-size="14.00">updated_at :datetime</text>
</g>
<!-- Offer&#45;&gt;UserAccount -->
<g id="edge9" class="edge"><title>Offer&#45;&gt;UserAccount</title>
<path fill="none" stroke="#18f1e5" d="M729.834,-775.436C721.015,-767.169 711.623,-759.031 702.233,-752 674.449,-731.197 641.645,-711.86 612.113,-696.072"/>
<polygon fill="#18f1e5" stroke="#18f1e5" points="729.872,-775.473 733.981,-785.64 733.483,-778.932 737.094,-782.39 737.094,-782.39 737.094,-782.39 733.483,-778.932 740.207,-779.14 729.872,-775.473 729.872,-775.473"/>
<polygon fill="#18f1e5" stroke="#18f1e5" points="611.904,-695.962 605.165,-687.311 607.483,-693.625 603.062,-691.289 603.062,-691.289 603.062,-691.289 607.483,-693.625 600.96,-695.268 611.904,-695.962 611.904,-695.962"/>
</g>
<!-- ApplicationRecord -->
<g id="node10" class="node"><title>ApplicationRecord</title>
<ellipse fill="none" stroke="black" cx="1323.23" cy="-828" rx="77.0154" ry="18"/>
<text text-anchor="middle" x="1323.23" y="-824.3" font-family="Times,serif" font-size="14.00">ApplicationRecord</text>
</g>
<!-- Product -->
<g id="node13" class="node"><title>Product</title>
<path fill="none" stroke="black" d="M91.733,-451.5C91.733,-451.5 198.733,-451.5 198.733,-451.5 204.733,-451.5 210.733,-457.5 210.733,-463.5 210.733,-463.5 210.733,-530.5 210.733,-530.5 210.733,-536.5 204.733,-542.5 198.733,-542.5 198.733,-542.5 91.733,-542.5 91.733,-542.5 85.733,-542.5 79.733,-536.5 79.733,-530.5 79.733,-530.5 79.733,-463.5 79.733,-463.5 79.733,-457.5 85.733,-451.5 91.733,-451.5"/>
<text text-anchor="middle" x="145.233" y="-527.3" font-family="Times,serif" font-size="14.00">Product</text>
<polyline fill="none" stroke="black" points="79.733,-519.5 210.733,-519.5 "/>
<text text-anchor="start" x="87.733" y="-504.3" font-family="Times,serif" font-size="14.00">id :int(11)</text>
<text text-anchor="start" x="87.733" y="-489.3" font-family="Times,serif" font-size="14.00">name :varchar(255)</text>
<text text-anchor="start" x="87.733" y="-474.3" font-family="Times,serif" font-size="14.00">created_at :datetime</text>
<text text-anchor="start" x="87.733" y="-459.3" font-family="Times,serif" font-size="14.00">updated_at :datetime</text>
</g>
<!-- Product&#45;&gt;Community -->
<g id="edge12" class="edge"><title>Product&#45;&gt;Community</title>
<path fill="none" stroke="#ea8f24" d="M145.543,-442.916C145.65,-424.692 145.77,-404.162 145.88,-385.401"/>
<ellipse fill="none" stroke="#ea8f24" cx="145.519" cy="-447.072" rx="4" ry="4"/>
<ellipse fill="#ea8f24" stroke="#ea8f24" cx="145.904" cy="-381.202" rx="4" ry="4"/>
</g>
<!-- Product&#45;&gt;Fnf -->
<g id="edge11" class="edge"><title>Product&#45;&gt;Fnf</title>
<path fill="none" stroke="#6437a2" d="M190.101,-444.851C207.088,-425.486 226.548,-403.301 244.071,-383.325"/>
<ellipse fill="none" stroke="#6437a2" cx="187.281" cy="-448.065" rx="4.00002" ry="4.00002"/>
<ellipse fill="#6437a2" stroke="#6437a2" cx="246.804" cy="-380.209" rx="4.00002" ry="4.00002"/>
</g>
<!-- Product&#45;&gt;ItemFeature -->
<g id="edge10" class="edge"><title>Product&#45;&gt;ItemFeature</title>
<path fill="none" stroke="#25046f" d="M96.0643,-444.822C85.9062,-431.256 76.6566,-415.92 71.233,-400 49.4475,-336.054 38.5789,-307.139 71.233,-248 93.5023,-207.668 132.686,-177.301 172.12,-155.279"/>
<ellipse fill="none" stroke="#25046f" cx="98.6609" cy="-448.172" rx="4.00002" ry="4.00002"/>
<ellipse fill="#25046f" stroke="#25046f" cx="175.97" cy="-153.179" rx="4.00002" ry="4.00002"/>
</g>
<!-- ShortCode -->
<g id="node15" class="node"><title>ShortCode</title>
<path fill="none" stroke="black" d="M467.233,-278.5C467.233,-278.5 599.233,-278.5 599.233,-278.5 605.233,-278.5 611.233,-284.5 611.233,-290.5 611.233,-290.5 611.233,-357.5 611.233,-357.5 611.233,-363.5 605.233,-369.5 599.233,-369.5 599.233,-369.5 467.233,-369.5 467.233,-369.5 461.233,-369.5 455.233,-363.5 455.233,-357.5 455.233,-357.5 455.233,-290.5 455.233,-290.5 455.233,-284.5 461.233,-278.5 467.233,-278.5"/>
<text text-anchor="middle" x="533.233" y="-354.3" font-family="Times,serif" font-size="14.00">ShortCode</text>
<polyline fill="none" stroke="black" points="455.233,-346.5 611.233,-346.5 "/>
<text text-anchor="start" x="463.233" y="-331.3" font-family="Times,serif" font-size="14.00">id :int(11)</text>
<text text-anchor="start" x="463.233" y="-316.3" font-family="Times,serif" font-size="14.00">code_name :varchar(255)</text>
<text text-anchor="start" x="463.233" y="-301.3" font-family="Times,serif" font-size="14.00">created_at :datetime</text>
<text text-anchor="start" x="463.233" y="-286.3" font-family="Times,serif" font-size="14.00">updated_at :datetime</text>
</g>
<!-- ShortCode&#45;&gt;ItemFeature -->
<g id="edge13" class="edge"><title>ShortCode&#45;&gt;ItemFeature</title>
<path fill="none" stroke="#eb4ff5" d="M477.789,-272.681C459.397,-255.989 438.139,-236.696 416.772,-217.304"/>
<ellipse fill="none" stroke="#eb4ff5" cx="480.957" cy="-275.556" rx="4.00002" ry="4.00002"/>
<ellipse fill="#eb4ff5" stroke="#eb4ff5" cx="413.706" cy="-214.522" rx="4.00002" ry="4.00002"/>
</g>
<!-- BonusAccount -->
<g id="node16" class="node"><title>BonusAccount</title>
<path fill="none" stroke="black" d="M390.233,-436.5C390.233,-436.5 506.233,-436.5 506.233,-436.5 512.233,-436.5 518.233,-442.5 518.233,-448.5 518.233,-448.5 518.233,-545.5 518.233,-545.5 518.233,-551.5 512.233,-557.5 506.233,-557.5 506.233,-557.5 390.233,-557.5 390.233,-557.5 384.233,-557.5 378.233,-551.5 378.233,-545.5 378.233,-545.5 378.233,-448.5 378.233,-448.5 378.233,-442.5 384.233,-436.5 390.233,-436.5"/>
<text text-anchor="middle" x="448.233" y="-542.3" font-family="Times,serif" font-size="14.00">BonusAccount</text>
<polyline fill="none" stroke="black" points="378.233,-534.5 518.233,-534.5 "/>
<text text-anchor="start" x="386.233" y="-519.3" font-family="Times,serif" font-size="14.00">id :int(11)</text>
<text text-anchor="start" x="386.233" y="-504.3" font-family="Times,serif" font-size="14.00">da_val_available :float</text>
<text text-anchor="start" x="386.233" y="-489.3" font-family="Times,serif" font-size="14.00">da_val_change :float</text>
<text text-anchor="start" x="386.233" y="-474.3" font-family="Times,serif" font-size="14.00">da_val_before :float</text>
<text text-anchor="start" x="386.233" y="-459.3" font-family="Times,serif" font-size="14.00">created_at :datetime</text>
<text text-anchor="start" x="386.233" y="-444.3" font-family="Times,serif" font-size="14.00">updated_at :datetime</text>
</g>
<!-- BonusAccount&#45;&gt;Accumulator -->
<g id="edge15" class="edge"><title>BonusAccount&#45;&gt;Accumulator</title>
<path fill="none" stroke="#b1e5af" d="M525.625,-436.907C526.161,-436.602 526.697,-436.299 527.233,-436 565.927,-414.385 581.474,-421.498 620.233,-400 621.167,-399.482 622.102,-398.956 623.038,-398.423"/>
<ellipse fill="none" stroke="#b1e5af" cx="522.087" cy="-439.005" rx="4.00002" ry="4.00002"/>
<ellipse fill="#b1e5af" stroke="#b1e5af" cx="626.771" cy="-396.228" rx="4.00002" ry="4.00002"/>
</g>
<!-- BonusAccount&#45;&gt;Priority -->
<g id="edge16" class="edge"><title>BonusAccount&#45;&gt;Priority</title>
<path fill="none" stroke="#92456b" d="M526.157,-436.444C526.515,-436.294 526.874,-436.146 527.233,-436 648.367,-386.757 698.313,-449.765 819.233,-400 826.615,-396.962 833.916,-393.205 841,-389.004"/>
<ellipse fill="none" stroke="#92456b" cx="522.306" cy="-438.209" rx="4.00002" ry="4.00002"/>
<ellipse fill="#92456b" stroke="#92456b" cx="844.607" cy="-386.771" rx="4.00002" ry="4.00002"/>
</g>
<!-- BonusAccount&#45;&gt;ItemFeature -->
<g id="edge14" class="edge"><title>BonusAccount&#45;&gt;ItemFeature</title>
<path fill="none" stroke="#527d45" d="M439.639,-428.398C431.51,-377.288 416.664,-306.219 391.233,-248 386.94,-238.173 381.941,-228.305 376.522,-218.604"/>
<ellipse fill="none" stroke="#527d45" cx="440.272" cy="-432.472" rx="4.00001" ry="4.00001"/>
<ellipse fill="#527d45" stroke="#527d45" cx="374.489" cy="-215.046" rx="4.00002" ry="4.00002"/>
</g>
<!-- UserAccount&#45;&gt;Service -->
<g id="edge18" class="edge"><title>UserAccount&#45;&gt;Service</title>
<path fill="none" stroke="#531f30" d="M448.264,-608.281C422.536,-593 394.273,-575.411 369.233,-558 364.527,-554.728 359.732,-551.252 354.958,-547.688"/>
<ellipse fill="none" stroke="#531f30" cx="452.006" cy="-610.492" rx="4.00002" ry="4.00002"/>
<ellipse fill="#531f30" stroke="#531f30" cx="351.661" cy="-545.194" rx="4.00002" ry="4.00002"/>
</g>
<!-- UserAccount&#45;&gt;UserFnf -->
<g id="edge21" class="edge"><title>UserAccount&#45;&gt;UserFnf</title>
<path fill="none" stroke="#83149a" d="M564.491,-586.923C569.353,-577.673 574.326,-568.214 579.127,-559.08"/>
<ellipse fill="none" stroke="#83149a" cx="562.563" cy="-590.592" rx="4.00002" ry="4.00002"/>
<polygon fill="#83149a" stroke="#83149a" points="579.208,-558.926 587.844,-552.168 581.534,-554.5 583.861,-550.074 583.861,-550.074 583.861,-550.074 581.534,-554.5 579.877,-547.981 579.208,-558.926 579.208,-558.926"/>
</g>
<!-- UserAccount&#45;&gt;UserOffer -->
<g id="edge20" class="edge"><title>UserAccount&#45;&gt;UserOffer</title>
<path fill="none" stroke="#00b1d9" d="M609.998,-609.017C637.098,-593.395 667.274,-575.417 694.233,-558 694.421,-557.878 694.609,-557.757 694.798,-557.635"/>
<ellipse fill="none" stroke="#00b1d9" cx="606.28" cy="-611.154" rx="4.00002" ry="4.00002"/>
<polygon fill="#00b1d9" stroke="#00b1d9" points="695.012,-557.494 705.839,-555.759 699.189,-554.747 703.367,-552 703.367,-552 703.367,-552 699.189,-554.747 700.894,-548.24 695.012,-557.494 695.012,-557.494"/>
</g>
<!-- UserAccount&#45;&gt;Product -->
<g id="edge17" class="edge"><title>UserAccount&#45;&gt;Product</title>
<path fill="none" stroke="#3b6360" d="M447.538,-637.682C383.01,-622.715 292.022,-596.9 219.233,-558 213.362,-554.862 207.507,-551.228 201.81,-547.331"/>
<ellipse fill="none" stroke="#3b6360" cx="451.77" cy="-638.651" rx="4.00001" ry="4.00001"/>
<ellipse fill="#3b6360" stroke="#3b6360" cx="198.466" cy="-544.962" rx="4.00002" ry="4.00002"/>
</g>
<!-- UserAccount&#45;&gt;BonusAccount -->
<g id="edge19" class="edge"><title>UserAccount&#45;&gt;BonusAccount</title>
<path fill="none" stroke="#1e53e3" d="M494.336,-586.79C490.883,-580.141 487.375,-573.384 483.914,-566.72"/>
<ellipse fill="none" stroke="#1e53e3" cx="496.305" cy="-590.582" rx="4.00002" ry="4.00002"/>
<polygon fill="#1e53e3" stroke="#1e53e3" points="483.843,-566.582 483.229,-555.634 481.539,-562.145 479.235,-557.707 479.235,-557.707 479.235,-557.707 481.539,-562.145 475.241,-559.781 483.843,-566.582 483.843,-566.582"/>
</g>
</g>
</svg>
